<svg width="243" height="243" viewBox="0 0 243 243" fill="none" xmlns="http://www.w3.org/2000/svg">
<g style="mix-blend-mode:screen" clip-path="url(#clip0_333_37695)">
<path fill-rule="evenodd" clip-rule="evenodd" d="M176.24 200.321C181.16 211.355 176.196 224.285 165.154 229.202C154.111 234.119 141.17 229.159 136.251 218.125C131.331 207.091 136.294 194.161 147.337 189.244C158.38 184.328 171.32 189.287 176.24 200.321Z" fill="white" fill-opacity="0.24"/>
<path d="M164.39 219.28C166.358 218.416 167.427 215.676 165.508 213.719L168.801 212.253C169.352 212.008 169.783 211.554 169.999 210.991C170.215 210.429 170.198 209.803 169.953 209.253L169.027 207.177C168.904 206.902 168.677 206.686 168.396 206.578C168.114 206.471 167.801 206.479 167.526 206.601L158.177 210.764L159.566 213.877L157.488 214.802L156.1 211.688L146.752 215.851C146.476 215.973 146.261 216.2 146.153 216.482C146.045 216.763 146.053 217.076 146.176 217.351L147.101 219.427C147.347 219.977 147.801 220.408 148.364 220.623C148.928 220.839 149.553 220.823 150.104 220.577L153.397 219.111C153.695 223.046 159.334 223.409 160.138 219.543L160.378 218.491L161.331 219.037C162.397 219.669 163.482 219.672 164.39 219.28ZM163.494 217.104C162.57 217.515 161.603 216.603 161.965 215.657C162.328 214.712 163.658 214.68 164.07 215.603C164.193 215.879 164.201 216.191 164.093 216.473C163.985 216.754 163.77 216.981 163.494 217.104M157.262 219.878C156.338 220.29 155.37 219.377 155.733 218.432C156.096 217.487 157.426 217.454 157.838 218.378C157.961 218.653 157.969 218.966 157.861 219.247C157.753 219.529 157.538 219.756 157.262 219.878M167.063 205.564L163.361 197.261C163.115 196.71 162.661 196.28 162.098 196.064C161.535 195.848 160.909 195.865 160.358 196.11L143.739 203.509C143.188 203.754 142.757 204.208 142.541 204.771C142.325 205.334 142.341 205.959 142.587 206.51L146.289 214.813L155.637 210.651L151.935 202.348L154.013 201.423L157.715 209.726L167.063 205.564Z" fill="white"/>
</g>
<g style="mix-blend-mode:screen" clip-path="url(#clip1_333_37695)">
<path fill-rule="evenodd" clip-rule="evenodd" d="M65.4295 41.4208C60.8031 30.2605 66.107 17.4658 77.276 12.843C88.445 8.22025 101.25 13.52 105.876 24.6803C110.502 35.8407 105.199 48.6354 94.0295 53.2581C82.8605 57.8809 70.0558 52.5812 65.4295 41.4208Z" fill="white" fill-opacity="0.24"/>
<path d="M77.7781 22.7818C75.7882 23.5931 74.6471 26.3037 76.513 28.3109L73.1828 29.6892C72.6255 29.9199 72.1828 30.3623 71.952 30.9191C71.7211 31.4759 71.7211 32.1015 71.952 32.6584L72.8223 34.7578C72.9377 35.0363 73.1591 35.2575 73.4377 35.3728C73.7163 35.4881 74.0294 35.4881 74.308 35.3728L83.763 31.4594L82.4576 28.3102L84.5587 27.4405L85.8642 30.5898L95.3192 26.6764C95.5978 26.5611 95.8192 26.3399 95.9346 26.0615C96.05 25.7831 96.05 25.4703 95.9346 25.1919L95.0643 23.0924C94.8335 22.5356 94.3907 22.0932 93.8335 21.8625C93.2762 21.6319 92.6501 21.6319 92.0929 21.8625L88.7626 23.2409C88.5688 19.2995 82.9411 18.7878 82.0356 22.6307L81.7675 23.6764L80.8293 23.1054C79.7801 22.4451 78.6964 22.414 77.7781 22.7818ZM78.6158 24.9808C79.5508 24.5939 80.4935 25.5319 80.1058 26.4672C79.7181 27.4025 78.3877 27.3997 78.0004 26.4654C77.885 26.187 77.885 25.8742 78.0004 25.5958C78.1158 25.3174 78.3372 25.0962 78.6158 24.9808M84.9192 22.3719C85.8542 21.985 86.7969 22.923 86.4092 23.8583C86.0215 24.7936 84.6911 24.7908 84.3038 23.8565C84.1884 23.5781 84.1884 23.2653 84.3038 22.9869C84.4192 22.7085 84.6406 22.4873 84.9192 22.3719M74.7431 36.4225L78.2244 44.8205C78.4552 45.3773 78.898 45.8197 79.4552 46.0503C80.0125 46.281 80.6386 46.281 81.1958 46.0503L98.0048 39.0932C98.562 38.8626 99.0048 38.4202 99.2356 37.8634C99.4664 37.3066 99.4664 36.6809 99.2356 36.1241L95.7543 27.7262L86.2993 31.6395L89.7806 40.0375L87.6794 40.9071L84.1982 32.5092L74.7431 36.4225Z" fill="white"/>
</g>
<g style="mix-blend-mode:screen" clip-path="url(#clip2_333_37695)">
<path fill-rule="evenodd" clip-rule="evenodd" d="M104.212 217.452C99.1999 228.445 86.2185 233.295 75.2172 228.286C64.216 223.277 59.3609 210.306 64.3731 199.313C69.3853 188.321 82.3668 183.47 93.368 188.479C104.369 193.488 109.224 206.46 104.212 217.452Z" fill="white" fill-opacity="0.24"/>
<path d="M82.148 221.141C84.099 222.042 86.861 221.027 87.0573 218.295L90.3375 219.788C90.8864 220.038 91.5122 220.06 92.0771 219.849C92.6421 219.638 93.0999 219.211 93.35 218.663L94.2929 216.595C94.4179 216.32 94.4288 216.008 94.3232 215.726C94.2175 215.443 94.004 215.215 93.7296 215.09L84.4166 210.849L83.0022 213.951L80.9326 213.009L82.347 209.907L73.034 205.667C72.7595 205.542 72.4467 205.531 72.1642 205.636C71.8817 205.742 71.6528 205.955 71.5277 206.23L70.5848 208.298C70.3348 208.846 70.313 209.471 70.5243 210.036C70.7356 210.6 71.1626 211.058 71.7115 211.308L74.9918 212.801C72.2394 215.631 75.7034 220.092 79.1335 218.133L80.0816 217.616L80.3037 218.691C80.536 219.908 81.2524 220.721 82.148 221.141ZM83.186 219.029C82.265 218.61 82.3085 217.281 83.2574 216.927C84.2064 216.572 85.1118 217.546 84.6922 218.466C84.5672 218.741 84.3382 218.954 84.0557 219.06C83.7733 219.165 83.4604 219.154 83.186 219.029M76.9773 216.202C76.0563 215.783 76.0998 214.454 77.0488 214.1C77.9977 213.745 78.9031 214.719 78.4835 215.64C78.3585 215.914 78.1295 216.127 77.8471 216.233C77.5646 216.338 77.2517 216.327 76.9773 216.202M94.201 214.056L97.9726 205.784C98.2227 205.236 98.2445 204.61 98.0332 204.046C97.8219 203.481 97.3948 203.024 96.846 202.774L80.2895 195.236C79.7406 194.986 79.1149 194.964 78.5499 195.175C77.985 195.386 77.5271 195.813 77.277 196.361L73.5054 204.633L82.8184 208.873L86.59 200.601L88.6596 201.544L84.888 209.815L94.201 214.056Z" fill="white"/>
</g>
<g style="mix-blend-mode:screen" clip-path="url(#clip3_333_37695)">
<path fill-rule="evenodd" clip-rule="evenodd" d="M137.461 26.2901C142.087 15.1298 154.892 9.83001 166.061 14.4528C177.23 19.0755 182.534 31.8702 177.908 43.0306C173.281 54.1909 160.477 59.4907 149.308 54.8679C138.139 50.2451 132.835 37.4504 137.461 26.2901Z" fill="white" fill-opacity="0.24"/>
<path d="M159.384 21.8349C157.402 21.0026 154.677 22.113 154.576 24.8507L151.246 23.4723C150.689 23.2417 150.063 23.2417 149.505 23.4723C148.948 23.703 148.505 24.1454 148.275 24.7022L147.404 26.8017C147.289 27.0801 147.289 27.3929 147.404 27.6713C147.52 27.9497 147.741 28.1709 148.02 28.2862L157.475 32.1996L158.78 29.0504L160.881 29.92L159.576 33.0692L169.031 36.9826C169.31 37.0979 169.623 37.0979 169.901 36.9826C170.18 36.8673 170.401 36.6461 170.517 36.3677L171.387 34.2682C171.618 33.7114 171.618 33.0857 171.387 32.5289C171.156 31.9721 170.713 31.5297 170.156 31.2991L166.826 29.9207C169.478 26.9968 165.861 22.6587 162.501 24.7363L161.571 25.2862L161.312 24.2196C161.037 23.0114 160.293 22.2237 159.384 21.8349ZM158.42 23.9818C159.355 24.3687 159.357 25.6981 158.421 26.0855C157.485 26.4729 156.547 25.531 156.934 24.5967C157.049 24.3183 157.271 24.0971 157.549 23.9818C157.828 23.8664 158.141 23.8664 158.42 23.9818M164.723 26.5907C165.658 26.9777 165.661 28.307 164.725 28.6944C163.789 29.0819 162.85 28.1399 163.237 27.2056C163.353 26.9272 163.574 26.706 163.853 26.5907C164.131 26.4753 164.444 26.4753 164.723 26.5907M147.585 29.336L144.103 37.7339C143.872 38.2907 143.872 38.9164 144.103 39.4732C144.334 40.03 144.777 40.4724 145.334 40.703L162.143 47.6601C162.7 47.8908 163.326 47.8908 163.884 47.6601C164.441 47.4295 164.884 46.9871 165.114 46.4303L168.596 38.0323L159.141 34.119L155.659 42.5169L153.558 41.6473L157.04 33.2493L147.585 29.336Z" fill="white"/>
</g>
<g style="mix-blend-mode:screen" clip-path="url(#clip4_333_37695)">
<path fill-rule="evenodd" clip-rule="evenodd" d="M42.8682 175.534C31.8737 180.542 18.8987 175.696 13.8876 164.71C8.87648 153.724 13.727 140.759 24.7214 135.751C35.7159 130.744 48.6909 135.59 53.702 146.575C58.7131 157.561 53.8626 170.526 42.8682 175.534Z" fill="white" fill-opacity="0.24"/>
<path d="M23.8065 163.862C24.687 165.82 27.4364 166.864 29.3776 164.931L30.8718 168.207C31.1218 168.755 31.5795 169.181 32.1441 169.392C32.7088 169.603 33.3342 169.581 33.8827 169.331L35.951 168.389C36.2253 168.264 36.4387 168.036 36.5442 167.753C36.6498 167.471 36.6388 167.159 36.5138 166.885L32.2717 157.585L29.1693 158.998L28.2266 156.931L31.329 155.518L27.087 146.219C26.9619 145.944 26.7331 145.731 26.4508 145.626C26.1684 145.52 25.8557 145.531 25.5815 145.656L23.5132 146.598C22.9646 146.848 22.5379 147.306 22.3268 147.87C22.1157 148.434 22.1376 149.059 22.3876 149.607L23.8817 152.883C19.9486 153.214 19.6337 158.849 23.5068 159.618L24.5614 159.849L24.0234 160.805C23.4 161.876 23.4068 162.958 23.8065 163.862ZM25.9754 162.949C25.5559 162.029 26.4607 161.055 27.4092 161.41C28.3576 161.764 28.4013 163.092 27.4809 163.511C27.2066 163.636 26.8939 163.647 26.6116 163.542C26.3293 163.436 26.1004 163.223 25.9754 162.949M23.1474 156.749C22.7279 155.829 23.6326 154.856 24.5811 155.21C25.5296 155.564 25.5732 156.892 24.6529 157.311C24.3786 157.436 24.0659 157.447 23.7836 157.342C23.5012 157.236 23.2724 157.023 23.1474 156.749M37.548 166.414L45.8211 162.645C46.3696 162.396 46.7964 161.938 47.0075 161.374C47.2186 160.81 47.1967 160.185 46.9467 159.637L39.4052 143.104C39.1552 142.556 38.6975 142.129 38.1328 141.918C37.5682 141.707 36.9428 141.729 36.3942 141.979L28.1211 145.747L32.3632 155.047L40.6363 151.279L41.579 153.346L33.3059 157.114L37.548 166.414Z" fill="white"/>
</g>
<g style="mix-blend-mode:screen" clip-path="url(#clip5_333_37695)">
<path fill-rule="evenodd" clip-rule="evenodd" d="M197.56 67.3747C207.971 61.2451 221.381 64.7083 227.513 75.11C233.645 85.5117 230.176 98.9129 219.766 105.043C209.355 111.172 195.944 107.709 189.812 97.3073C183.68 86.9056 187.149 73.5043 197.56 67.3747Z" fill="white" fill-opacity="0.24"/>
<path d="M217.739 76.9901C216.658 75.1351 213.815 74.3842 212.086 76.5091L210.258 73.4076C209.952 72.8886 209.452 72.5124 208.869 72.3617C208.285 72.211 207.665 72.2981 207.146 72.6039L205.187 73.757C204.928 73.91 204.739 74.1597 204.664 74.4513C204.588 74.7429 204.632 75.0525 204.785 75.312L209.976 84.1174L212.914 82.3878L214.067 84.3446L211.129 86.0742L216.32 94.8797C216.473 95.1392 216.723 95.3273 217.015 95.4026C217.307 95.478 217.617 95.4344 217.876 95.2815L219.835 94.1284C220.354 93.8226 220.731 93.3231 220.882 92.7399C221.033 92.1567 220.946 91.5375 220.64 91.0185L218.811 87.917C222.688 87.1764 222.413 81.5397 218.48 81.1795L217.407 81.06L217.842 80.0526C218.35 78.9231 218.231 77.847 217.739 76.9901ZM215.677 78.1248C216.19 78.9956 215.392 80.0585 214.412 79.8054C213.432 79.5522 213.249 78.2361 214.121 77.723C214.381 77.5701 214.69 77.5265 214.982 77.6019C215.274 77.6772 215.524 77.8653 215.677 78.1248M219.138 83.9951C219.651 84.8659 218.853 85.9288 217.873 85.6757C216.892 85.4225 216.71 84.1064 217.582 83.5933C217.841 83.4404 218.151 83.3968 218.443 83.4722C218.735 83.5475 218.985 83.7356 219.138 83.9951M203.806 75.8885L195.972 80.5009C195.452 80.8068 195.076 81.3062 194.925 81.8894C194.774 82.4726 194.861 83.0918 195.167 83.6108L204.395 99.265C204.701 99.7839 205.201 100.16 205.784 100.311C206.368 100.462 206.988 100.374 207.507 100.069L215.341 95.4562L210.15 86.6508L202.316 91.2632L201.163 89.3064L208.997 84.694L203.806 75.8885Z" fill="white"/>
</g>
<g style="mix-blend-mode:screen" clip-path="url(#clip6_333_37695)">
<path fill-rule="evenodd" clip-rule="evenodd" d="M25.9993 104.068C14.8364 99.4478 9.53545 86.6601 14.1593 75.5059C18.7831 64.3517 31.5807 59.0549 42.7436 63.6751C53.9065 68.2954 59.2074 81.083 54.5836 92.2372C49.9598 103.391 37.1621 108.688 25.9993 104.068Z" fill="white" fill-opacity="0.24"/>
<path d="M21.5426 82.1758C20.7101 84.1544 21.8208 86.8758 24.5591 86.9766L23.1804 90.3025C22.9497 90.859 22.9497 91.4843 23.1804 92.0408C23.4111 92.5973 23.8536 93.0395 24.4105 93.27L26.5105 94.1392C26.789 94.2544 27.1019 94.2544 27.3803 94.1392C27.6588 94.0239 27.8801 93.8028 27.9954 93.5246L31.9097 84.0821L28.7597 82.7783L29.6296 80.68L32.7795 81.9837L36.6938 72.5412C36.8091 72.263 36.8091 71.9503 36.6938 71.6721C36.5784 71.3938 36.3572 71.1727 36.0787 71.0575L33.9787 70.1883C33.4218 69.9578 32.796 69.9578 32.2391 70.1883C31.6821 70.4188 31.2396 70.861 31.0089 71.4175L29.6302 74.7434C26.7056 72.0948 22.3666 75.7072 24.4446 79.0625L24.9947 79.9908L23.9278 80.2499C22.7193 80.5241 21.9315 81.2674 21.5426 82.1758ZM23.69 83.1383C24.077 82.2046 25.4067 82.2018 25.7942 83.1366C26.1817 84.0713 25.2395 85.0089 24.305 84.6221C24.0265 84.5068 23.8053 84.2858 23.69 84.0075C23.5746 83.7292 23.5746 83.4166 23.69 83.1383M26.2995 76.8433C26.6865 75.9096 28.0162 75.9068 28.4037 76.8416C28.7912 77.7763 27.849 78.7139 26.9145 78.3271C26.636 78.2118 26.4148 77.9908 26.2995 77.7125C26.1841 77.4342 26.1841 77.1216 26.2995 76.8433M29.0454 93.9591L37.4453 97.4358C38.0022 97.6663 38.628 97.6663 39.1849 97.4358C39.7419 97.2053 40.1844 96.7631 40.4151 96.2066L47.3737 79.4199C47.6044 78.8634 47.6044 78.2381 47.3737 77.6816C47.143 77.1251 46.7005 76.683 46.1436 76.4524L37.7437 72.9758L33.8295 82.4183L42.2293 85.8949L41.3595 87.9933L32.9596 84.5166L29.0454 93.9591Z" fill="white"/>
</g>
<g style="mix-blend-mode:screen">
<path fill-rule="evenodd" clip-rule="evenodd" d="M213.33 137.524C225.001 140.645 231.929 152.629 228.804 164.292C225.679 175.955 213.684 182.881 202.013 179.76C190.342 176.64 183.414 164.655 186.539 152.992C189.664 141.329 201.659 134.404 213.33 137.524Z" fill="white" fill-opacity="0.24"/>
<path d="M220.613 158.646C221.18 156.575 219.723 154.022 216.995 154.281L217.926 150.803C218.082 150.221 218.001 149.601 217.699 149.08C217.398 148.558 216.901 148.178 216.319 148.022L214.123 147.435C213.832 147.357 213.522 147.398 213.261 147.549C213 147.699 212.809 147.947 212.731 148.238L210.086 158.112L213.379 158.992L212.791 161.186L209.498 160.306L206.852 170.179C206.774 170.47 206.815 170.78 206.966 171.041C207.117 171.302 207.365 171.492 207.656 171.57L209.852 172.157C210.434 172.312 211.055 172.231 211.577 171.929C212.099 171.628 212.479 171.132 212.635 170.55L213.567 167.072C216.813 169.315 220.642 165.166 218.143 162.112L217.476 161.263L218.5 160.867C219.663 160.437 220.346 159.597 220.613 158.646ZM218.358 157.972C218.097 158.949 216.779 159.125 216.272 158.249C215.766 157.373 216.577 156.32 217.554 156.582C217.846 156.66 218.094 156.85 218.245 157.111C218.395 157.371 218.436 157.681 218.358 157.972M216.595 164.554C216.333 165.531 215.015 165.707 214.509 164.831C214.002 163.955 214.814 162.903 215.791 163.164C216.082 163.242 216.33 163.432 216.481 163.693C216.632 163.954 216.673 164.263 216.595 164.554M211.634 147.945L202.851 145.597C202.269 145.441 201.648 145.523 201.126 145.824C200.604 146.126 200.224 146.622 200.068 147.204L195.364 164.756C195.208 165.338 195.29 165.958 195.592 166.48C195.893 167.001 196.39 167.382 196.972 167.538L205.755 169.886L208.4 160.012L199.618 157.664L200.206 155.47L208.988 157.818L211.634 147.945Z" fill="white"/>
</g>
<defs>
<clipPath id="clip0_333_37695">
<rect width="50.0275" height="50" fill="white" transform="matrix(-0.913545 0.406736 -0.407239 -0.913321 189.277 221.882)"/>
</clipPath>
<clipPath id="clip1_333_37695">
<rect width="50.0275" height="50" fill="white" transform="matrix(0.923984 -0.382429 0.382937 0.923774 52.9668 19.5222)"/>
</clipPath>
<clipPath id="clip2_333_37695">
<rect width="50.0275" height="50" fill="white" transform="matrix(-0.910106 -0.414375 0.414876 -0.909878 96.6855 241.495)"/>
</clipPath>
<clipPath id="clip3_333_37695">
<rect width="50.0275" height="50" fill="white" transform="matrix(0.923984 0.382429 -0.382937 0.923774 144.146 2)"/>
</clipPath>
<clipPath id="clip4_333_37695">
<rect width="49.9725" height="50" fill="white" transform="matrix(-0.415011 -0.909816 0.910044 -0.41451 21.4141 188.738)"/>
</clipPath>
<clipPath id="clip5_333_37695">
<rect width="49.9725" height="50" fill="white" transform="matrix(0.507839 0.861452 -0.861731 0.507365 217.518 52)"/>
</clipPath>
<clipPath id="clip6_333_37695">
<rect width="49.9725" height="50" fill="white" transform="matrix(0.382937 -0.923774 0.923984 0.382429 1.70312 97.3926)"/>
</clipPath>
</defs>
</svg>
